<svg width="21" height="23" viewBox="0 0 21 23" fill="none" xmlns="http://www.w3.org/2000/svg">
<path fill-rule="evenodd" clip-rule="evenodd" d="M11.789 1.04563C12.3505 0.788843 12.9776 0.711571 13.5847 0.824357C14.0093 0.903248 14.3695 1.09094 14.7069 1.31192C15.0264 1.52123 15.3909 1.80576 15.8134 2.13558L16.3167 2.52844C16.7392 2.85824 17.1037 3.14276 17.3843 3.40191C17.6806 3.6755 17.9501 3.97941 18.1298 4.37218C18.3865 4.9337 18.4638 5.56077 18.351 6.16783C18.2721 6.59246 18.0844 6.95271 17.8635 7.29004C17.6542 7.60956 17.3696 7.97404 17.0398 8.39654L8.40841 19.4541C8.39046 19.4771 8.37276 19.4998 8.35528 19.5223C8.0218 19.9498 7.76969 20.2731 7.45763 20.5385C7.19349 20.7632 6.90125 20.9526 6.58825 21.102C6.21849 21.2784 5.82048 21.3765 5.29401 21.5062C5.2664 21.513 5.23843 21.5199 5.21009 21.5269L2.29957 22.2455C2.15242 22.2818 1.98444 22.3234 1.83627 22.3461C1.6711 22.3715 1.41532 22.3945 1.13282 22.3041C0.793215 22.1953 0.503461 21.9691 0.315519 21.6661C0.159181 21.414 0.1194 21.1603 0.103927 20.9939C0.0900462 20.8446 0.0895559 20.6716 0.0891263 20.52L0.0795994 17.5221C0.0795066 17.493 0.0794033 17.4642 0.0793012 17.4357C0.0773551 16.8935 0.0758837 16.4836 0.157253 16.082C0.22613 15.7422 0.338914 15.4127 0.492768 15.1019C0.674528 14.7347 0.926896 14.4117 1.26071 13.9844C1.27822 13.962 1.29595 13.9393 1.3139 13.9163L9.94525 2.85873C10.2751 2.43618 10.5596 2.07166 10.8187 1.79104C11.0923 1.49478 11.3962 1.22525 11.789 1.04563ZM13.2193 2.79071C13.017 2.75311 12.8079 2.77887 12.6208 2.86446C12.5693 2.888 12.4759 2.94449 12.288 3.14793C12.092 3.3602 11.8584 3.65812 11.4977 4.12027L11.2229 4.47236L15.1642 7.54895L15.4391 7.19685C15.7998 6.7347 16.0321 6.4358 16.1905 6.19411C16.3422 5.96246 16.3743 5.85813 16.3847 5.8025C16.4223 5.60015 16.3965 5.39112 16.3109 5.20395C16.2874 5.1525 16.2309 5.05909 16.0274 4.87121C15.8152 4.67518 15.5173 4.44161 15.0551 4.08087L14.6137 3.73629C14.1515 3.37554 13.8526 3.14324 13.6109 2.98492C13.3793 2.83317 13.275 2.80104 13.2193 2.79071ZM13.9336 9.12551L9.99222 6.04892L2.89046 15.1469C2.48071 15.6719 2.36515 15.8276 2.28517 15.9892C2.20824 16.1446 2.15185 16.3093 2.11741 16.4793C2.0816 16.656 2.07747 16.8498 2.07959 17.5158L2.08824 20.2376L4.73073 19.5852C5.37724 19.4256 5.56433 19.3745 5.72705 19.2969C5.88354 19.2222 6.02966 19.1275 6.16174 19.0152C6.29906 18.8984 6.4221 18.7484 6.83186 18.2235L13.9336 9.12551ZM10.1666 21.5C10.1666 20.9477 10.6144 20.5 11.1666 20.5H19.3333C19.8856 20.5 20.3333 20.9477 20.3333 21.5C20.3333 22.0523 19.8856 22.5 19.3333 22.5H11.1666C10.6144 22.5 10.1666 22.0523 10.1666 21.5Z" fill="#5F3305"/>
</svg>
